<mxfile host="app.diagrams.net" modified="2023-05-04T16:19:59.560Z" agent="Mozilla/5.0 (Windows NT 10.0; Win64; x64) AppleWebKit/537.36 (KHTML, like Gecko) Chrome/113.0.0.0 Safari/537.36" etag="gv5fu8RfA_mEJDw5hFdp" version="21.2.8" type="device">
  <diagram name="Страница 1" id="qmx2nRA65QfuMIrgEYD6">
    <mxGraphModel dx="1235" dy="724" grid="1" gridSize="10" guides="1" tooltips="1" connect="1" arrows="1" fold="1" page="1" pageScale="1" pageWidth="827" pageHeight="1169" math="0" shadow="0">
      <root>
        <mxCell id="0" />
        <mxCell id="1" parent="0" />
        <mxCell id="OZ93eDa3h9UizVf5vEpM-49" style="edgeStyle=orthogonalEdgeStyle;rounded=0;orthogonalLoop=1;jettySize=auto;html=1;" edge="1" parent="1" source="OZ93eDa3h9UizVf5vEpM-4">
          <mxGeometry relative="1" as="geometry">
            <mxPoint x="555" y="520" as="targetPoint" />
            <Array as="points">
              <mxPoint x="620" y="245" />
              <mxPoint x="620" y="520" />
            </Array>
          </mxGeometry>
        </mxCell>
        <mxCell id="OZ93eDa3h9UizVf5vEpM-1" value="Finish" style="ellipse;whiteSpace=wrap;html=1;fontStyle=1;fillColor=#ffe6cc;strokeColor=#d79b00;" vertex="1" parent="1">
          <mxGeometry x="670" y="250" width="160" height="80" as="geometry" />
        </mxCell>
        <mxCell id="OZ93eDa3h9UizVf5vEpM-55" style="edgeStyle=orthogonalEdgeStyle;rounded=0;orthogonalLoop=1;jettySize=auto;html=1;entryX=0.474;entryY=0.003;entryDx=0;entryDy=0;entryPerimeter=0;" edge="1" parent="1" source="OZ93eDa3h9UizVf5vEpM-2" target="OZ93eDa3h9UizVf5vEpM-3">
          <mxGeometry relative="1" as="geometry" />
        </mxCell>
        <mxCell id="OZ93eDa3h9UizVf5vEpM-2" value="Start" style="ellipse;whiteSpace=wrap;html=1;fontStyle=1;fillColor=#ffe6cc;strokeColor=#d79b00;" vertex="1" parent="1">
          <mxGeometry x="252.5" width="230" height="60" as="geometry" />
        </mxCell>
        <mxCell id="OZ93eDa3h9UizVf5vEpM-3" value="" style="shape=parallelogram;perimeter=parallelogramPerimeter;whiteSpace=wrap;html=1;fixedSize=1;fillColor=#dae8fc;strokeColor=#6c8ebf;" vertex="1" parent="1">
          <mxGeometry x="230" y="100" width="290" height="70" as="geometry" />
        </mxCell>
        <mxCell id="OZ93eDa3h9UizVf5vEpM-28" style="edgeStyle=orthogonalEdgeStyle;rounded=0;orthogonalLoop=1;jettySize=auto;html=1;exitX=0.5;exitY=1;exitDx=0;exitDy=0;entryX=0.5;entryY=0;entryDx=0;entryDy=0;" edge="1" parent="1" source="OZ93eDa3h9UizVf5vEpM-4" target="OZ93eDa3h9UizVf5vEpM-5">
          <mxGeometry relative="1" as="geometry" />
        </mxCell>
        <mxCell id="OZ93eDa3h9UizVf5vEpM-4" value="" style="shape=hexagon;perimeter=hexagonPerimeter2;whiteSpace=wrap;html=1;fixedSize=1;fillColor=#f8cecc;strokeColor=#b85450;" vertex="1" parent="1">
          <mxGeometry x="215" y="205" width="315" height="80" as="geometry" />
        </mxCell>
        <mxCell id="OZ93eDa3h9UizVf5vEpM-42" style="edgeStyle=orthogonalEdgeStyle;rounded=0;orthogonalLoop=1;jettySize=auto;html=1;exitX=0;exitY=0.5;exitDx=0;exitDy=0;entryX=1;entryY=0.5;entryDx=0;entryDy=0;" edge="1" parent="1" source="OZ93eDa3h9UizVf5vEpM-5" target="OZ93eDa3h9UizVf5vEpM-15">
          <mxGeometry relative="1" as="geometry" />
        </mxCell>
        <mxCell id="OZ93eDa3h9UizVf5vEpM-51" style="edgeStyle=orthogonalEdgeStyle;rounded=0;orthogonalLoop=1;jettySize=auto;html=1;" edge="1" parent="1" source="OZ93eDa3h9UizVf5vEpM-5">
          <mxGeometry relative="1" as="geometry">
            <mxPoint x="100" y="270" as="targetPoint" />
            <Array as="points">
              <mxPoint x="373" y="420" />
              <mxPoint x="21" y="420" />
            </Array>
          </mxGeometry>
        </mxCell>
        <mxCell id="OZ93eDa3h9UizVf5vEpM-5" value="" style="rhombus;whiteSpace=wrap;html=1;fillColor=#e1d5e7;strokeColor=#9673a6;" vertex="1" parent="1">
          <mxGeometry x="212.5" y="325" width="320" height="75" as="geometry" />
        </mxCell>
        <mxCell id="OZ93eDa3h9UizVf5vEpM-19" style="edgeStyle=orthogonalEdgeStyle;rounded=0;orthogonalLoop=1;jettySize=auto;html=1;entryX=0.5;entryY=0;entryDx=0;entryDy=0;" edge="1" parent="1" source="OZ93eDa3h9UizVf5vEpM-6" target="OZ93eDa3h9UizVf5vEpM-9">
          <mxGeometry relative="1" as="geometry" />
        </mxCell>
        <mxCell id="OZ93eDa3h9UizVf5vEpM-6" value="&lt;div style=&quot;font-family: Consolas, &amp;quot;Courier New&amp;quot;, monospace; font-size: 14px; line-height: 19px;&quot;&gt;int &lt;span style=&quot;font-size: 14px;&quot;&gt;i&lt;/span&gt; = &lt;span style=&quot;font-size: 14px;&quot;&gt;0&lt;/span&gt;; &lt;span style=&quot;font-size: 14px;&quot;&gt;i&lt;/span&gt; &amp;lt; &lt;span style=&quot;font-size: 14px;&quot;&gt;arr&lt;/span&gt;.Length; &lt;span style=&quot;font-size: 14px;&quot;&gt;i&lt;/span&gt;++&lt;/div&gt;" style="shape=hexagon;perimeter=hexagonPerimeter2;whiteSpace=wrap;html=1;fixedSize=1;labelBackgroundColor=none;fontSize=14;fontStyle=1;fillColor=#f8cecc;strokeColor=#b85450;" vertex="1" parent="1">
          <mxGeometry x="175" y="580" width="400" height="85" as="geometry" />
        </mxCell>
        <mxCell id="OZ93eDa3h9UizVf5vEpM-18" style="edgeStyle=orthogonalEdgeStyle;rounded=0;orthogonalLoop=1;jettySize=auto;html=1;entryX=0.5;entryY=0;entryDx=0;entryDy=0;" edge="1" parent="1" source="OZ93eDa3h9UizVf5vEpM-9" target="OZ93eDa3h9UizVf5vEpM-17">
          <mxGeometry relative="1" as="geometry" />
        </mxCell>
        <mxCell id="OZ93eDa3h9UizVf5vEpM-38" style="edgeStyle=orthogonalEdgeStyle;rounded=0;orthogonalLoop=1;jettySize=auto;html=1;exitX=1;exitY=0.5;exitDx=0;exitDy=0;" edge="1" parent="1" source="OZ93eDa3h9UizVf5vEpM-9">
          <mxGeometry relative="1" as="geometry">
            <mxPoint x="150" y="850" as="targetPoint" />
            <Array as="points">
              <mxPoint x="600" y="740" />
              <mxPoint x="600" y="950" />
              <mxPoint x="151" y="950" />
            </Array>
          </mxGeometry>
        </mxCell>
        <mxCell id="OZ93eDa3h9UizVf5vEpM-9" value="&lt;div style=&quot;font-family: Consolas, &amp;quot;Courier New&amp;quot;, monospace; font-size: 14px; line-height: 19px;&quot;&gt;arr[&lt;span style=&quot;font-size: 14px;&quot;&gt;i&lt;/span&gt;].Length &amp;lt;= &lt;span style=&quot;font-size: 14px;&quot;&gt;3&lt;/span&gt;&lt;/div&gt;" style="rhombus;whiteSpace=wrap;html=1;labelBackgroundColor=none;fontSize=14;fontStyle=1;fillColor=#e1d5e7;strokeColor=#9673a6;" vertex="1" parent="1">
          <mxGeometry x="165" y="700" width="420" height="80" as="geometry" />
        </mxCell>
        <mxCell id="OZ93eDa3h9UizVf5vEpM-31" style="edgeStyle=orthogonalEdgeStyle;rounded=0;orthogonalLoop=1;jettySize=auto;html=1;exitX=0.5;exitY=0;exitDx=0;exitDy=0;" edge="1" parent="1" source="OZ93eDa3h9UizVf5vEpM-10" target="OZ93eDa3h9UizVf5vEpM-1">
          <mxGeometry relative="1" as="geometry" />
        </mxCell>
        <mxCell id="OZ93eDa3h9UizVf5vEpM-10" value="&lt;div style=&quot;font-family: Consolas, &amp;quot;Courier New&amp;quot;, monospace; font-size: 14px; line-height: 19px;&quot;&gt;&lt;b&gt;newArray&lt;/b&gt;&lt;/div&gt;" style="shape=document;whiteSpace=wrap;html=1;boundedLbl=1;labelBackgroundColor=none;fillColor=#d5e8d4;strokeColor=#82b366;" vertex="1" parent="1">
          <mxGeometry x="660" y="400" width="180" height="80" as="geometry" />
        </mxCell>
        <mxCell id="OZ93eDa3h9UizVf5vEpM-11" value="&lt;div style=&quot;font-family: Consolas, &amp;quot;Courier New&amp;quot;, monospace; font-size: 14px; line-height: 19px;&quot;&gt;string[] &lt;span style=&quot;font-size: 14px;&quot;&gt;arr&lt;/span&gt;&lt;/div&gt;" style="text;html=1;strokeColor=none;fillColor=none;align=center;verticalAlign=middle;whiteSpace=wrap;rounded=0;fontColor=#000000;labelBackgroundColor=none;fontSize=14;fontStyle=1" vertex="1" parent="1">
          <mxGeometry x="257.5" y="110" width="225" height="30" as="geometry" />
        </mxCell>
        <mxCell id="OZ93eDa3h9UizVf5vEpM-29" style="edgeStyle=orthogonalEdgeStyle;rounded=0;orthogonalLoop=1;jettySize=auto;html=1;exitX=0.5;exitY=1;exitDx=0;exitDy=0;entryX=0.476;entryY=0.007;entryDx=0;entryDy=0;entryPerimeter=0;" edge="1" parent="1" source="OZ93eDa3h9UizVf5vEpM-12" target="OZ93eDa3h9UizVf5vEpM-4">
          <mxGeometry relative="1" as="geometry" />
        </mxCell>
        <mxCell id="OZ93eDa3h9UizVf5vEpM-12" value="&lt;div style=&quot;font-family: Consolas, &amp;quot;Courier New&amp;quot;, monospace; font-size: 14px; line-height: 19px;&quot;&gt;int &lt;span style=&quot;font-size: 14px;&quot;&gt;count&lt;/span&gt; = &lt;span style=&quot;font-size: 14px;&quot;&gt;0&lt;/span&gt;&lt;/div&gt;" style="text;html=1;align=center;verticalAlign=middle;whiteSpace=wrap;rounded=0;fontColor=#000000;labelBackgroundColor=none;fontSize=14;fontStyle=1" vertex="1" parent="1">
          <mxGeometry x="305" y="140" width="140" height="30" as="geometry" />
        </mxCell>
        <mxCell id="OZ93eDa3h9UizVf5vEpM-13" value="&lt;br style=&quot;font-size: 14px;&quot;&gt;&lt;div style=&quot;font-family: Consolas, &amp;quot;Courier New&amp;quot;, monospace; font-size: 14px; line-height: 19px;&quot;&gt;&lt;div style=&quot;font-size: 14px;&quot;&gt;int i = 0; i &amp;lt; arr.Length-1; i++&lt;/div&gt;&lt;/div&gt;" style="text;html=1;strokeColor=none;fillColor=none;align=center;verticalAlign=middle;whiteSpace=wrap;rounded=0;fontColor=#000000;labelBackgroundColor=none;fontSize=14;fontStyle=1" vertex="1" parent="1">
          <mxGeometry x="250" y="230" width="260" height="30" as="geometry" />
        </mxCell>
        <mxCell id="OZ93eDa3h9UizVf5vEpM-14" value="&lt;div style=&quot;font-family: Consolas, &amp;quot;Courier New&amp;quot;, monospace; font-size: 14px; line-height: 19px;&quot;&gt;arr[&lt;span style=&quot;font-size: 14px;&quot;&gt;i&lt;/span&gt;].Length &amp;lt;= &lt;span style=&quot;font-size: 14px;&quot;&gt;3&lt;/span&gt;&lt;/div&gt;" style="text;html=1;strokeColor=none;fillColor=none;align=center;verticalAlign=middle;whiteSpace=wrap;rounded=0;fontColor=#000000;labelBackgroundColor=none;fontSize=14;fontStyle=1" vertex="1" parent="1">
          <mxGeometry x="290" y="347.5" width="160" height="30" as="geometry" />
        </mxCell>
        <mxCell id="OZ93eDa3h9UizVf5vEpM-50" style="edgeStyle=orthogonalEdgeStyle;rounded=0;orthogonalLoop=1;jettySize=auto;html=1;entryX=0;entryY=0.5;entryDx=0;entryDy=0;" edge="1" parent="1" source="OZ93eDa3h9UizVf5vEpM-15" target="OZ93eDa3h9UizVf5vEpM-4">
          <mxGeometry relative="1" as="geometry">
            <Array as="points">
              <mxPoint x="100" y="245" />
            </Array>
          </mxGeometry>
        </mxCell>
        <mxCell id="OZ93eDa3h9UizVf5vEpM-15" value="&lt;div style=&quot;font-family: Consolas, &amp;quot;Courier New&amp;quot;, monospace; font-size: 14px; line-height: 19px;&quot;&gt;count++;&lt;/div&gt;" style="rounded=0;whiteSpace=wrap;html=1;labelBackgroundColor=none;fontSize=14;fontStyle=1;fillColor=#fff2cc;strokeColor=#d6b656;" vertex="1" parent="1">
          <mxGeometry x="45" y="342.5" width="120" height="40" as="geometry" />
        </mxCell>
        <mxCell id="OZ93eDa3h9UizVf5vEpM-30" style="edgeStyle=orthogonalEdgeStyle;rounded=0;orthogonalLoop=1;jettySize=auto;html=1;exitX=1;exitY=0.5;exitDx=0;exitDy=0;" edge="1" parent="1" source="OZ93eDa3h9UizVf5vEpM-6" target="OZ93eDa3h9UizVf5vEpM-10">
          <mxGeometry relative="1" as="geometry">
            <Array as="points">
              <mxPoint x="750" y="625" />
            </Array>
          </mxGeometry>
        </mxCell>
        <mxCell id="OZ93eDa3h9UizVf5vEpM-37" style="edgeStyle=orthogonalEdgeStyle;rounded=0;orthogonalLoop=1;jettySize=auto;html=1;entryX=0;entryY=0.5;entryDx=0;entryDy=0;" edge="1" parent="1" source="OZ93eDa3h9UizVf5vEpM-17" target="OZ93eDa3h9UizVf5vEpM-6">
          <mxGeometry relative="1" as="geometry">
            <mxPoint x="70" y="630" as="targetPoint" />
            <Array as="points">
              <mxPoint x="110" y="850" />
              <mxPoint x="110" y="625" />
            </Array>
          </mxGeometry>
        </mxCell>
        <mxCell id="OZ93eDa3h9UizVf5vEpM-17" value="&lt;div style=&quot;font-family: Consolas, &amp;quot;Courier New&amp;quot;, monospace; font-size: 14px; line-height: 19px;&quot;&gt;newArray[&lt;span style=&quot;font-size: 14px;&quot;&gt;i&lt;/span&gt;] = &lt;span style=&quot;font-size: 14px;&quot;&gt;arr&lt;/span&gt;[&lt;span style=&quot;font-size: 14px;&quot;&gt;i&lt;/span&gt;];&lt;/div&gt;" style="rounded=0;whiteSpace=wrap;html=1;labelBackgroundColor=none;fontSize=14;fontStyle=1;fillColor=#fff2cc;strokeColor=#d6b656;" vertex="1" parent="1">
          <mxGeometry x="212.5" y="810" width="325" height="60" as="geometry" />
        </mxCell>
        <mxCell id="OZ93eDa3h9UizVf5vEpM-34" value="&lt;b&gt;&lt;font style=&quot;font-size: 15px;&quot;&gt;yas&lt;/font&gt;&lt;/b&gt;" style="text;html=1;strokeColor=none;fillColor=none;align=center;verticalAlign=middle;whiteSpace=wrap;rounded=0;" vertex="1" parent="1">
          <mxGeometry x="310" y="780" width="60" height="30" as="geometry" />
        </mxCell>
        <mxCell id="OZ93eDa3h9UizVf5vEpM-35" value="&lt;b&gt;&lt;font style=&quot;font-size: 14px;&quot;&gt;no&lt;/font&gt;&lt;/b&gt;" style="text;html=1;align=center;verticalAlign=middle;resizable=0;points=[];autosize=1;strokeColor=none;fillColor=none;" vertex="1" parent="1">
          <mxGeometry x="570" y="585" width="40" height="30" as="geometry" />
        </mxCell>
        <mxCell id="OZ93eDa3h9UizVf5vEpM-36" value="&lt;font style=&quot;font-size: 15px;&quot;&gt;&lt;b&gt;yas&lt;/b&gt;&lt;/font&gt;" style="text;html=1;align=center;verticalAlign=middle;resizable=0;points=[];autosize=1;strokeColor=none;fillColor=none;" vertex="1" parent="1">
          <mxGeometry x="320" y="670" width="50" height="30" as="geometry" />
        </mxCell>
        <mxCell id="OZ93eDa3h9UizVf5vEpM-40" value="&lt;b&gt;&lt;font style=&quot;font-size: 15px;&quot;&gt;no&lt;/font&gt;&lt;/b&gt;" style="text;html=1;align=center;verticalAlign=middle;resizable=0;points=[];autosize=1;strokeColor=none;fillColor=none;" vertex="1" parent="1">
          <mxGeometry x="610" y="798" width="40" height="30" as="geometry" />
        </mxCell>
        <mxCell id="OZ93eDa3h9UizVf5vEpM-44" value="&lt;font style=&quot;font-size: 15px;&quot;&gt;no&lt;/font&gt;" style="text;html=1;align=center;verticalAlign=middle;resizable=0;points=[];autosize=1;strokeColor=none;fillColor=none;fontStyle=1" vertex="1" parent="1">
          <mxGeometry x="537.5" y="200" width="40" height="30" as="geometry" />
        </mxCell>
        <mxCell id="OZ93eDa3h9UizVf5vEpM-52" value="&lt;font style=&quot;font-size: 16px;&quot;&gt;&lt;b&gt;yas&lt;/b&gt;&lt;/font&gt;" style="text;html=1;align=center;verticalAlign=middle;resizable=0;points=[];autosize=1;strokeColor=none;fillColor=none;" vertex="1" parent="1">
          <mxGeometry x="165" y="328" width="50" height="30" as="geometry" />
        </mxCell>
        <mxCell id="OZ93eDa3h9UizVf5vEpM-53" value="&lt;b&gt;&lt;font style=&quot;font-size: 15px;&quot;&gt;no&lt;/font&gt;&lt;/b&gt;" style="text;html=1;align=center;verticalAlign=middle;resizable=0;points=[];autosize=1;strokeColor=none;fillColor=none;" vertex="1" parent="1">
          <mxGeometry x="172.5" y="390" width="40" height="30" as="geometry" />
        </mxCell>
        <mxCell id="OZ93eDa3h9UizVf5vEpM-61" value="" style="edgeStyle=orthogonalEdgeStyle;rounded=0;orthogonalLoop=1;jettySize=auto;html=1;" edge="1" parent="1" source="OZ93eDa3h9UizVf5vEpM-56" target="OZ93eDa3h9UizVf5vEpM-6">
          <mxGeometry relative="1" as="geometry" />
        </mxCell>
        <mxCell id="OZ93eDa3h9UizVf5vEpM-56" value="&lt;div style=&quot;font-family: Consolas, &amp;quot;Courier New&amp;quot;, monospace; font-size: 14px; line-height: 19px;&quot;&gt;&lt;b style=&quot;&quot;&gt;string[] newArray = new string[count];&lt;/b&gt;&lt;/div&gt;" style="shape=parallelogram;perimeter=parallelogramPerimeter;whiteSpace=wrap;html=1;fixedSize=1;fillColor=#dae8fc;strokeColor=#6c8ebf;" vertex="1" parent="1">
          <mxGeometry x="195" y="490" width="360" height="60" as="geometry" />
        </mxCell>
      </root>
    </mxGraphModel>
  </diagram>
</mxfile>
